<svg width="24" height="36" viewBox="0 0 24 36" fill="none" xmlns="http://www.w3.org/2000/svg">
<path d="M0.395508 3.62029V22.0131L3.64825 25.3327H6.54935L9.01089 30.716H13.7581L11.5603 25.3327C12.2929 25.3028 13.7581 25.261 13.7581 25.3327C13.7581 25.4045 15.9266 23.1495 17.0109 22.0131V13.041H12.5274V20.0392L11.912 20.6673H5.31858L4.7032 20.0392V5.41471L5.4065 4.69694H11.9999L12.7032 5.41471V6.6708H6.54935V18.6934H10.945V11.1568H18.3296L19.0329 12.054V22.7308L15.1647 26.6786L18.857 35.5609H23.6043C22.4908 32.8093 20.2461 27.3066 20.1757 27.3066C20.1054 27.3066 22.1977 25.2131 23.2526 24.1664V9.99047L19.912 6.58108H16.7472V3.62029L13.6702 0.480067C10.3003 0.50998 3.54276 0.551844 3.47243 0.480067C3.4021 0.40829 1.39185 2.54364 0.395508 3.62029Z" fill="white"/>
</svg>
